<?xml version="1.0" standalone="no"?>
<!DOCTYPE svg PUBLIC "-//W3C//DTD SVG 20010904//EN"
 "http://www.w3.org/TR/2001/REC-SVG-20010904/DTD/svg10.dtd">
<svg version="1.0" xmlns="http://www.w3.org/2000/svg"
 width="120.000000pt" height="120.000000pt" viewBox="0 0 120.000000 120.000000"
 preserveAspectRatio="xMidYMid meet">

<g transform="translate(0.000000,120.000000) scale(0.100000,-0.100000)"
fill="#000000" stroke="none">
<path d="M506 1190 c-136 -24 -233 -75 -331 -174 -117 -118 -170 -252 -169
-426 1 -166 56 -294 180 -417 73 -73 164 -126 264 -154 76 -21 244 -17 325 8
188 59 339 211 398 398 25 81 29 250 8 325 -28 100 -81 191 -154 264 -79 79
-148 123 -245 155 -72 23 -206 34 -276 21z m30 -346 c50 -24 74 -70 74 -140 0
-114 -49 -154 -197 -162 l-93 -5 0 -93 0 -94 -50 0 -50 0 0 255 0 255 141 0
c109 0 149 -4 175 -16z m372 -138 c40 -21 63 -63 41 -77 -24 -15 -69 -10 -99
12 -22 17 -37 20 -66 16 -40 -7 -59 -25 -43 -43 5 -6 48 -21 96 -34 103 -27
143 -58 143 -112 0 -84 -78 -135 -194 -126 -44 4 -74 13 -95 28 -31 21 -69 80
-54 80 5 1 27 5 51 9 23 5 42 4 42 0 0 -5 9 -18 20 -29 36 -36 130 -21 130 20
0 15 -13 23 -57 35 -147 41 -173 60 -173 128 0 53 15 75 63 98 50 24 145 21
195 -5z"/>
<path d="M327 773 c-4 -3 -7 -37 -7 -75 l0 -68 70 0 c62 0 74 3 95 25 42 41
29 95 -26 114 -35 12 -122 15 -132 4z"/>
</g>
</svg>
