<svg version="1.1" viewBox="0 0 9.502 18.58" xmlns="http://www.w3.org/2000/svg">
<g transform="translate(-20.55 -75.56)">
<g>
<path d="m21.57 83.1c-.7708-.2773-.8857-.8661-.8797-1.174-.086-1.017.278-1.429.8724-1.203.0023.7924.0048 1.585.0073 2.377z" fill="#fff" stroke="#32a8df" stroke-width=".2389px"/>
<path d="m29.03 80.99c.08776-.2459.2672-.4283.4553-.3416.6618.4237.4548 1.177.2885 1.847-.09469.3427-.4659.6659-.7648.5926z" fill="#fff" stroke="#32a8df" stroke-width=".2363px"/>
<path d="m22.14 86.74c1.527-.4502 4.72-.4784 5.577-.213 1.104.4899.8602.4492 1.195.7185l-5.801.3031c-.3744-.2021-.654-.5968-.972-.8086z" fill="#006386"/>
<path d="m22.86 87.61c.2304-.1953.5623-.3735.5552-.8032l-.02-.8034c1.202.4576 3.694.3237 4.13-.05883l.07087.7205c.03888.4225.2948.7164.5492.939-3.03 3.075-3.651 2.193-5.286.0059z" fill="#fff" stroke="#32a8df" stroke-linecap="round" stroke-linejoin="round" stroke-width=".265"/>
<path d="m23.4 86.01c-.7135-.3869-1.78-.9763-1.787-1.477-.02227-1.13-.02519-2.214-.04747-3.345.3514-2.533 2.268-3.532 3.875-2.915 1.7-.7703 2.905.1163 3.591 2.74-.01762 1.178-.03179 2.484-.03847 3.662-.0015.2728-.9739 1.018-1.482 1.285-1.199.6146-3.02.5469-4.112.05007z" fill="#fff" stroke="#32a8df" stroke-linecap="round" stroke-linejoin="round" stroke-width=".2646px"/>
<path d="m28.59 80.93c.187.07679.5326-.2175.9186-.5803.4893-.7692.06932-2.193-.01804-2.215.0021-.02918-.2496-.3875-.3522-.3091.04293-.1415-.08424-.1304-.2387-.3065.09055.05268.3095.1268.1501-.1553-.1639-.3064-.3654-.3865-.6512-.5885.03334-.3478-.571-.3997-1.106-.5029.1652-.1654-.2111-.3358-.4553-.4602-.5745-.08085-1.15-.1848-1.724-.2512-1.582.07736-1.325.2324-1.42.3726-.4222.2507-.873.3568-.7121.5241-.239.1262-.5806.234-.7442.3792-.1694.2524-.2581.441-.4849.6408-.5017.592-.7742 1.218-.8727 2.107-.0047.4611-.05375.9285.08665 1.369.1064-.0016.4207.4199.6014.2339.248-.164.5905-.6171.9503-1.178.2233.1473.2995-.3429.396-.7453 2.095.4431 1.831.04654 2.504-.02363.05385.07194.109.3771.1613.1621.2749-.09821.2358-.4476.3112-.7054.01908.3359-.1506.8229.1654.9213.3464.05383.356.08341.351-.06083-.01067-.2562.06125-.4121.2575-.5004-.07729.5193.08959.54.6672.8093.256.03392.3772-.2116.1442-.2958-.1345-.1185-.1502-.11-.255-.2516-.03749-.1351.01122-.1744.0188-.3125.04365-.1673-.03673-.2933.0069-.4606.08994.1578.2198.1714.1997.3792-.0075.1425.05131.1768.04381.3193.1827.2465.1619.341.3641.33-.05398.4578-.2101.07357-.02233.6297.7955.4196.1644.2304.7584.7254z" fill="#1799d5"/>
<path d="m24.9 89.29-.6834.6569c.1029.5179.669.5784.6496.8032-.1603.5005-.356 1.088-.4185 1.52-.1029.7421.3839 1.249.7941 1.734.3848.405.5176-.21.6924-.6639.1356-.5942.1384-1.164.07782-1.68-.2454-.4084-.4086-.6969-.03364-1.046.3274-.2215.3855-.5198.3855-.5198-.0252-.3871-.4042-.5369-.7623-.837-.3329.01651-.5899-.02902-.7016.03341z" fill="#0481a8"/>
<path d="m24.9 89.29-1.27 1.036-2.172-2.639.735-.8352z" fill="#fff" stroke="#32a8df" stroke-linecap="round" stroke-linejoin="round" stroke-width=".265"/>
<path d="m28.55 87.09-2.94 2.172 1.403.9689c.7694-.8479 1.55-1.686 2.314-2.539z" fill="#fff" stroke="#32a8df" stroke-linejoin="round" stroke-width=".2646px"/>
</g>
<path d="m23.9 84.01c1.003.1822 1.803.1046 2.589.0084" fill="none" stroke="#32a8df" stroke-linecap="round" stroke-linejoin="round" stroke-width=".365"/>
<path d="m21.79 81.07c.08592-.2221.4762-.5012.7932-.5205.5847-.0042 1.186-.02088 1.771.0042.3289.102.4772.4152.579.4553l.7154-.0116c.1075-.1595.2279-.3154.4888-.4311.4348-.04822 1.972-.09348 2.143.0374.6448.5886.3623.9951.1269 1.595-.4034 1.138-2.078.7654-2.433.2262-.2842-.3952-.3212-.8309-.3569-1.286l-.6621.0062c-.01643.4011-.1016 1.051-.2884 1.263-.4776.5621-.9383.573-1.726.4923-.4392-.181-.625-.3613-.8093-.5841-.3456-.6139-.3335-.8687-.3416-1.246z" fill="#fff" stroke="#32a8df" stroke-linecap="round" stroke-linejoin="round" stroke-width=".2646px"/>
</g>
</svg>
