<svg version="1.1" viewBox="0 0 12.21 11.79" xmlns="http://www.w3.org/2000/svg">
<g transform="translate(-26.38 -117.3)">
<rect x="26.38" y="117.3" width="12.21" height="11.79" rx=".6615" ry=".6615" fill="#fff" style="paint-order:fill markers stroke"/>
<path d="m27.51 119.2c.01758-.3348.2754-.5018.6217-.3144.1336.1153.1261.2547.139.3461.0059.2261.212.4113.4307.5429.336.1621.8274.2442 1.434.2669 1.02-.0265 2.027.0702 3.017.3325 1.251.4209 2.239 1.037 2.921 1.879 1.012 1.204 1.266 2.882 1.336 3.665.01723.3643.05453.7208.01881 1.106-.01199.4321-.466.5428-.7097.1876-.04091-.1709-.04192-.3063-.1162-.4-.2022-.3001-.4109-.3684-.6191-.4552-.5882-.1534-1.092-.1227-1.616-.1564-.8192-.0645-1.314.0657-2.79-.3935-1.43-.5122-2.496-1.345-3.176-2.519-.5496-1.059-.8609-2.205-.8808-3.237-.01489-.2885-.02821-.5639-.0099-.85z" fill="#f8931d"/>
<g>
<ellipse transform="matrix(.9685 .249 -.2518 .9678 0 0)" cx="62.4" cy="111.2" rx="2.206" ry="2.133" fill="#fff" style="paint-order:fill markers stroke"/>
<ellipse transform="matrix(.9685 .249 -.2518 .9678 0 0)" cx="62.4" cy="111.2" rx="1.303" ry="1.265" fill="#95969a" style="paint-order:fill markers stroke"/>
<ellipse transform="matrix(.9685 .249 -.2518 .9678 0 0)" cx="62.42" cy="111.2" rx=".5348" ry=".5074" fill="#fff" style="paint-order:fill markers stroke"/>
</g>
</g>
</svg>
