<svg version="1.1" viewBox="0 0 656.3 371.5" xml:space="preserve" xmlns="http://www.w3.org/2000/svg" xmlns:xlink="http://www.w3.org/1999/xlink">
<g transform="translate(-946.2 -542.5)">
<path d="m985.1 542.5-.00327 265.4c96.53 35.34 193 70.76 289.6 106 96.54-35.32 193.1-70.67 289.6-106l-1e-4-265.4z" fill="#20b2aa"/>
<g transform="matrix(1.253 0 0 1.212 -551.6 -572.2)">
<g id="Recommended_1_" transform="translate(790.2 358.9)">
<g id="Recommended" transform="matrix(1.911 0 0 2.078 -681 -767.2)">
<path d="m668.7 707.7 5.27 43.07c.1898 1.551-1.017 2.951-2.695 3.127l-11.84 1.238c-1.678.1754-3.193-.9399-3.383-2.491l-5.27-43.07c-.1898-1.552 1.017-2.951 2.695-3.127l11.84-1.238c1.678-.1756 3.193.9399 3.383 2.491zm81.76 33.68c.6859-2.957-1.813-5.475-.5908-7.926 1.443-2.892 4.427-3.461 4.491-7.517.0438-2.778-2.351-4.813-1.518-7.242.9554-2.789 3.463-3.709 3.269-7.503-.239-4.691-2.84-3.489-.8497-7.614 1.214-2.515 2.362-4.89 1.445-7.733-4.002-12.4-27.66-3.156-36.6-2.798-10.23.4092-3.181-7.135-.6822-12.5 2.555-5.487 3.806-12.92 2.557-18.66-1.127-5.185-4.682-11.9-10.66-11.92-8.727-.0372-6.186 8.336-7.988 14.02-4.451 14.03-14.02 22.45-24.18 33.1-4.101 4.297-7.334 8.119-6.743 12.95 1.071 8.751 2.514 21.48 3.533 29.81 1.123 9.177 4.681 11.13 15.21 10.82 14.04-.4104 28.42 1.295 42.36-.162 6.466-.676 15.31-2.02 16.96-9.114z" fill="#fff" stroke-width=".1621"/>
</g>
</g>
</g>
</g>
</svg>