<svg version="1.1" viewBox="0 0 12.21 11.79" xmlns="http://www.w3.org/2000/svg">
<g transform="translate(-26.38 -117.3)">
<rect x="26.38" y="117.3" width="12.21" height="11.79" rx=".6615" ry=".6615" fill="#fff" style="paint-order:fill markers stroke"/>
<g transform="matrix(.1774 0 0 .1822 21.43 109.3)">
<g transform="translate(29.5 45.86)" fill-rule="evenodd" stroke-width="1.033">
<path d="m61.55 5.495c-.5217-.08028-.9903.2047-1.272.5292-.2817.3247-.4772.7269-.6475 1.234-.2944.8772-1.376 4.133-5.275 7.351s-10.62 6.819-22.28 7.109c-7.086.08028-11.97-3.884-14.8-9.297-.7052-1.351-1.954-3.869-1.954-2.267v2.477l-.03598 13.84c.2418 1.535.4398 2.194.03599 3.374-.6708 1.84-3.095 4.524-9.007 6.242-2.098 1.247 2.055 5.525 2.979 6.432 1.93 1.873 4.513 3.768 7.521 5.481 6.017 3.426 13.72 6.134 21.21 6.26 7.487.1269 14.81-2.408 19.66-9.429 4.847-7.021 7.211-19.81 5.275-37.26h-.0034c-.06147-.4791-.1706-.8882-.3661-1.247-.3072-.4728-.5715-.7691-1.04-.8286z" fill="#d9b256"/>
<path d="m21.63 19.68c-2.079 0-4.168.6653-5.758 2.034-1.591 1.369-2.643 3.455-2.643 6.103s1.052 4.731 2.643 6.1 3.68 2.034 5.758 2.034c2.079 0 4.168-.6653 5.758-2.034 1.591-1.369 2.646-3.452 2.646-6.1s-1.055-4.734-2.646-6.103-3.68-2.034-5.758-2.034z" fill="#fff"/>
<path d="m23.73 24.77c-1.029 0-2.07.3295-2.872 1.02-.8018.69-1.329 1.753-1.329 3.048s.5275 2.358 1.329 3.048c.8018.69 1.842 1.02 2.872 1.02 1.029 0 2.07-.3295 2.872-1.02.8018-.69 1.329-1.753 1.329-3.048s-.5275-2.358-1.329-3.048c-.8018-.69-1.842-1.02-2.872-1.02z" fill="#3f3f3f"/>
<path d="m25.84 45.11c3.033 0 5.798.1529 8.305 0 4.166-.2586 7.828-.5116 9.679-1.943-.7831-1.013-1.18-2.124-1.18-2.124s2.534.9671 3.758 2.549c1.22 1.577-1.338 2.549-1.657 4.567-.7109-1.773-.2471-2.437-.4267-3.142-1.292 1.789-3.517 3.072-6.511 3.142-3.186.07399-7.242-1.375-11.97-3.046z" opacity=".3"/>
<path d="m6.893 25.79c-1.545-.1963-3.318.89-3.676 1.13-3.026 2.173-3.823 7.099-.08528 12.26 3.738 5.158 8.683 5.959 11.71 3.785 3.026-2.173 3.826-7.099.08821-12.26-2.453-3.385-5.427-4.893-8.036-4.915z" fill="#3f3f3f"/>
<path d="m36.34 19.68c-2.079 0-4.168.6653-5.758 2.034-1.591 1.369-2.643 3.455-2.643 6.103s1.052 4.731 2.643 6.1 3.68 2.034 5.758 2.034c2.079 0 4.168-.6653 5.758-2.034 1.591-1.369 2.646-3.452 2.646-6.1s-1.055-4.734-2.646-6.103-3.68-2.034-5.758-2.034z" fill="#fff"/>
<path d="m38.44 24.77c-1.029 0-2.07.3295-2.872 1.02-.8018.69-1.329 1.753-1.329 3.048s.5275 2.358 1.329 3.048c.8018.69 1.842 1.02 2.872 1.02 1.029 0 2.07-.3295 2.872-1.02.8018-.69 1.329-1.753 1.329-3.048s-.5275-2.358-1.329-3.048c-.8018-.69-1.842-1.02-2.872-1.02z" fill="#3f3f3f"/>
</g>
</g>
</g>
</svg>
