<svg version="1.1" viewBox="0 0 18.1 17.46" xmlns="http://www.w3.org/2000/svg">
<g class="currentLayer" transform="matrix(.2141 0 0 .2318 -159.2 -111.6)">
<title>Layer 1</title>
<g transform="matrix(.2976 0 0 .2669 740.4 481.6)">
<g id="Layer_2_1_" transform="matrix(.9468 0 0 .9569 10.97 0)">
<g style="">
<rect width="300" height="295" fill="#8dc2fd"/>
</g>
</g>
<g transform="matrix(1.001 0 0 1.017 3.867 -8.409)">
<g style="">
<rect x="23.86" y="23.46" width="252.3" height="248.1" fill="#090058"/>
</g>
</g>
<g transform="matrix(.9468 0 0 .9569 10.97 0)">
<g style="">
<path d="m72.5 83.14s18.97-.499 34.58-.499c15.78 0 27.03 3.712 34.58 10.24 7.219 6.164 12.09 16.67 12.09 28.63s-3.694 21.75-10.41 28.63c-8.729 8.881-18.9 14.14-36.26 14.86-4.795.201-9.233.249-9.233.249v38.88h-25.35zm25.35 60.57c2.754.268 4.48.139 8.562.09 13.6-.163 21.99-8.432 21.99-20.94 0-11.23-6.919-20.46-19.97-20.94-5.203-.19-10.58 0-10.58 0z" fill="#8dc2fd"/>
<g style="">
<path d="m163.4 177.1c5.109 3.135 17.16 7.83 25.38 7.83 8.396 0 11.86-2.959 11.86-7.572 0-4.619-2.738-9.471-13.14-12.98-18.44-6.279-25.56-13.8-25.38-24.32 0-16.99 14.24-29.73 36.33-29.73 10.41 0 18.72 3.402 24.19 6.17v20.39c-4.019-2.218-15.61-7.17-23.28-7.17-6.758 0-10.59 2.769-10.59 7.382 0 4.248 3.471 6.464 14.42 10.34 16.98 5.908 24.1 14.58 24.28 27.88 0 16.8-12.95 30.17-38.7 29.36-8.835-.278-18.62-3.77-25.38-7.459v-20.13z" fill="#8dc2fd"/>
</g>
</g>
</g>
</g>
</g>
</svg>
