<svg version="1.1" viewBox="0 0 90.68 117.4" xmlns="http://www.w3.org/2000/svg">
<g class="currentLayer" transform="matrix(.2141 0 0 .2318 -125.9 -68.23)">
<title>Layer 1</title>
<path d="m682 742.8c1.75-5.06 6.906-8.14 11.99-8.955 11.79-1.592 23.18-2.121 33.37-.7341-.6622 9.157.8201 20.83-9.951 22.47-10.61.7542-21.23 2.076-31.88 1.607-3.077-3.486-4.486-10.55-3.523-14.39z" fill="#fbbebe"/>
<ellipse class="selected" cx="773.5" cy="684.5" rx="143" ry="40" fill="#464353"/>
<ellipse class="selected" cx="773.5" cy="684.5" rx="143" ry="40" opacity=".1"/>
<path d="m799.1 473.3c-8.21 16.97-27.39 25.35-45.57 24.38-11.29.2279-22.64-3.994-30.52-12.2-10.21-10.21-15.91-23.93-20.27-37.45-1.412-4.345-1.489-9.443 4.341-9.205 5.912-1.485 10.95-6.944 10.06-13.31-.2563-6.231-3.754-11.61-5.212-17.51 11.93 5.681 42.91 5.677 58.94.678 1.937 7.791 5.823 15.87 13.5 19.39 5.426 2.89 11.31 4.925 16.6 8.029 8.064 9.821 2.512 26.94-1.872 37.21z" fill="#fbbebe"/>
<path d="m771.6 411.3c-13.79 14.9-38.81 18.87-55.77 7.784-.9079-3.85-3.266-7.205-3.928-11.11-.5992-2.419 1.599-4.057 3.728-4.427 3.29-.955 6.768-1.422 9.743-3.238 6.961-3.601 13.93-8.113 22-8.432 5.7-.2864 11.37.7994 16.89 2.068 3.108 1.101 3.392 4.92 4.481 7.573 1.007 3.245 1.823 6.546 2.849 9.785z" opacity=".1"/>
<circle class="selected" cx="738.5" cy="377.5" r="46" fill="#fbbebe"/>
<path d="m878.6 526.8c-4.02-20.28-4.41-42.02-15.19-60.2-4.088-10.16-22.51-11.45-22.61-15.63-9.24-9.785-29.58-7.678-36.29-19.08-9.711-5.894-14.37 1.389-13.41 10.63-1.872 20.88-20.79 39.15-42.33 37.09-20.37-.8252-35.32-18.82-38.9-37.75-8.265-14.88-17.83 10.4-29.4 8.799-3.196 9.025-18.12 5.134-19.05 11.02-1.454 3.345-19.04 5.163-19.36 17.18 11.03 25.06 21.99 50.23 32.61 75.41-3.243 7.995-7.24 16.38-6.207 25.52.3952 14.43 3.169 30.44-5.98 42.98-3.762 9.196-6.125 23.95-1.754 31.57h224.7c-6.829-23.3 1.227-47.69-3.17-71.3-1.892-18.71-.518-37.66-3.64-56.26z" fill="#f86d70"/>
<path class="selected" d="m890.2 647.3c3.33-1.27 7-.81 10.57-.33 11.49 1.57 23.15 3.18 33.8 7.77 5 2.14 9.76 5 13.14 9.21 3 3.79 4.75 8.43 6.41 13l3.84 10.49c1.46 4 2.94 8.08 3.35 12.33 1.2 12.59-7.41 24.46-18.24 31s-23.58 8.87-36 11.31-24.89 5.14-37.26 8a150 150 0 01-17.53 3.45c-13.24 1.5-27.08-.71-39.66 3.67-5 1.75-9.91 4.35-15.1 5.56a93.93 93.93 0 01-10.43 1.68l-23.81 2.72a129.9 129.9 0 01-14.6 1.12c-10.4 0-20.63-2.46-30.73-4.92a7.77 7.77 0 01-3-1.21c-1.6-1.26-1.95-3.49-2.18-5.51q-1.53-13.41-2.68-26.85c-.24-2.91-.42-6.06 1.17-8.51 2-3 5.9-3.94 9.46-4.52a246.9 246.9 0 0145.68-3.17c5.81-5.81 15.39-5.84 23-9a68.39 68.39 0 008.11-4.41 106 106 0 0144.51-14.07 41.45 41.45 0 009.11-1.3c5.89-1.83 11.26-6.81 17.31-5.59.75-2.07 1.27-4.84 3-6.26.86-.73 1.92-1.22 2.71-2 1.67-1.69 1.82-4.35 1.57-6.71s-.81-4.78-.2-7.08a9.79 9.79 0 011.11-2.47c3.01-5.26 7.54-7.9 13.57-7.4z" fill="#464353"/>
<path d="m890.2 647.3c11.33-2.131 22.99 1.89 34.13 3.92 12.05 2.917 24.84 9.499 28.51 22.3 3.689 11.83 11.48 23.89 7.323 36.6-5.573 17.3-23.65 25.93-40.26 29.31-23.01 4.487-45.83 9.951-68.87 14.23-15.39 1.213-31.7-1.05-45.9 6.522-13.36 5.005-27.86 4.967-41.86 6.978-16.15 2.716-32.85.1423-48.2-4.927-4.673-8.534-2.904-19.54-4.692-29.08-6.465-19.23 24.3-20.68 34.86-19.15l21.16-.408c12.2-8.576 28.79-8.01 40.52-18.29 17.89-9.922 39.41-6.107 57.09-15.98 6.351.7158 7.444-7.638 11.64-11.47-2.319-10.08 2.347-21.63 14.54-20.56z" opacity=".05"/>
<path d="m693.6 763c-4.852 6.38-12.87 10.18-20.9 9.504-11.77.0558-23.53-2.13-35.29-1.09-12.4 1.646-24.89 7.206-37.48 3.663-7.101-1.821-10.94-9.239-11.39-16.1-2.42-18.56 7.941-38.55 25.23-46.17 8.03-2.35 15.68 2.623 21.68 7.425 3.123 2.426 6.13 5.018 9.462 7.162 7.494 1.116 15.29.3618 22.62 2.349 8.593 4.222 17.95 6.814 27.48 7.581 5.715.3404 4.826 7.645 4.706 11.75-.5992 5.108-2.72 10.05-6.102 13.94z" fill="#3f3d56"/>
<path class="selected" d="m624.2 713.6a78.9 78.9 0 00-13.15 16.44 82.28 82.28 0 00-10.74 32.54 60.4 60.4 0 00-.11 12.61 15.63 15.63 0 01-7.25-4.42c-2.36-2.67-3.49-6.21-4.14-9.71-3.29-17.94 5.73-37.48 21.52-46.61a15.78 15.78 0 016.84-2.43 16.21 16.21 0 016.92 1.52z" opacity=".1"/>
<path class="selected" d="m878.7 738.5c26.18-1.721 29.81 20.42 26.79 39.08-1.76 4-6.59 5.93-11 5.7s-8.46-2.16-12.49-3.9c-10.94-4.713-22.33-8.302-34-10.71 2.496-9.401-.5729-22.42 5.17-30.08 2.71-3.36 6.24-1.54 9.92-.92 5.164.788 10.39 1.066 15.61.83z" fill="#fbbebe"/>
<path d="m684.5 657.4c-3.515-4.777-6.714-15.95-15.32-18.42-13.73-5.986-30.13-4.36-43.62 1.504-13.41 6.381-15.35 22.79-22.55 34.17-2.285 21.31 13.84 39.7 31.29 49.63 30.23 17.15 66.67 20.58 98.68 31.84 27.02 7.087 56.64 6.389 81.88 19.71 12.46 4.391 25.69 6.412 38.8 7.522 10.33-5.397-2.076-21.52 4.728-30.65 4.616-9.18 16.15-26.76-1.527-29.85-9.551-.6165-19.91 4.221-26.84-5.005-9.688-6.899-20.35 4.526-29.26-3.073-31.19-14.02-62.11-29.18-95.27-38.03-5.932-6.197-15.31-8.236-20.29-15.34-.6024-1.226-.9788-2.639-.6929-4.009z" fill="#464353"/>
<path d="m1009 788.1c-5.695 10.24-18.7 13.68-29.66 12.29-12.46-1.385-24.13-6.367-36.36-8.78-17.43.1359-35.82 3.103-52.61-2.68-2.78-3.878-9.673-8.539-5.02-13.71 2.948-3.634 8.757-5.637 8.659-11.13.1454-5.557-1.708-11.25-5.941-15.02-3.501-3.031-4.146-8.764-.4301-11.89 5.457-4.84 13.17-2.385 19.53-1.281 11.88 2.192 24.02-5.338 35.61-.3119 6.759 3.394 14.65 1.854 21.1-1.512 6.765-4.196 15.48-4.408 22.32-.3975 7.441 4.299 14.42 9.956 19.26 17.09 3.226 6.797 4.859 14.3 5.978 21.71.5853 5.286.1602 10.87-2.426 15.62z" fill="#3f3d56"/>
<path d="m1009 788.1c-3.395 6.294-10.06 10.18-16.88 11.71 5.748-10.59 4.036-23.67-1.125-34.13-5.929-12.04-14.66-22.79-25.71-30.47-3.572-2.32 1.949-2.492 3.446-3.34 6.759-2.58 14.35-.6047 20.16 3.326 5.715 3.642 10.83 8.232 15.21 13.39 3.967 5.626 4.953 12.63 6.61 19.15 1.328 6.733 1.671 14.14-1.708 20.36z" opacity=".1"/>
<path d="m706.7 302.8c-9.246 7.772-6.381 13.48-18.71 17.46-7.939 3.609-9.146 13.33-9.895 21.02-.3065 7.254-.5909 15.59 4.566 21.16 2.779 5.825-1.091 20.21 5.678 24.04 4.141 2.697 2.062-11.28 2.216-5.355-2.013 5.34 8.085 15.96 6.901 10.6 7.548-14.21 9.804-19.79 7.771-27.99 5.542-5.859 14.59-.008 20.91-4.67 8.676-3.751 17.95-8.839 27.7-6.248 6.869.3991 12.08 6.168 14.39 11.4 7.77.743 12.19 6.963 12.94 14.25 2.104 4.799-2.862 13.48 4.899 8.359 4.073-5.482 4.849-5.825 5.664-11.61.5466-14.11 8.191-27.98 3.922-42.15-2.162-9.144-12.48-12.71-15.95-21.14-6.995-10.52-19.93-14.81-31.82-16.89-14.04-2.014-29.01.2872-41.19 7.752z" fill="#3f3d56"/>
<path d="m681.2 571c-1.542 21.91-18.07 38.79-22.51 59.89-1.702 9.509-6.754 18.33-14.56 24.12-8.297 6.164-18.93 12.98-29.5 8.574-8.204-2.946-12.14-11.43-13.11-19.52-1.97-11.59-9.45-21.62-9.904-33.58-1.925-22.95 8.87-45.25 23.01-62.72 6.132-6.607 13.44-12.05 20.89-17.05 7.498-2.898 14.33 22.26 20.84 8.994 6.462 6.74 18.36 8.148 23.48 16.54 1.898 4.635 1.571 9.853 1.36 14.75z" fill="#fbbebe"/>
<path d="m641.5 479.6c-4.877 5.431-2.576 14.27-8.251 19.21-5.224 14.17-6.664 29.32-8.473 44.21-4.809.4268-2.848 9.364 1.687 7.653 9.246-4.017 19.51-1.542 28.97.2763 8.277 1.583 16.54 3.486 24.99 3.869 3.116-2.976.5277-7.175-.6563-10.44-3.341-11.99-.1522-24.39 1.049-36.44.7317-7.713.9423-15.86-2.131-23.12-2.112-4.71-6.569-8.461-11.83-8.848-5.03-.9451-10.15-3.505-15.32-2.167-3.726 1.206-6.563 4.082-10.03 5.794z" fill="#f86d70"/>
<path d="m635.1 513.6c4.102-13.54 9.084-26.85 12.37-40.62 3.121-11.37-5.785-19.81-15.16-24.07-14.3-11.43-10.75-24.92-24.04-39.79-7.365-3.518-10.43-.5768-5.074 8.975 2.938 7.499 7.603 22.7 1.435 33.1-6.214 8.784-9.593 19.17-7.208 29.89-.6415 9.545 4.615 18.3 3.932 28 .4842 14.62 2.303 29.24 1.528 43.86-2.302 20.32-11.65 40.71-5.3 61.25 4.341 13.73-.755 30.41 9.62 42 10.26 10.19 28.34 4.198 36.12-6.274 10.16-13.7 6.145-31.57 4.155-47.18-2.498-16.86-3.62-34.1-9.99-50.09-3.773-12.54-6.492-26.22-2.39-39.05z" fill="#facfcf"/>
<rect class="selected" x="677" y="516" width="223" height="142" rx="37.22" ry="34.38" fill="#3f3d56"/>
<rect class="selected" x="677" y="516" width="223" height="142" rx="37.22" ry="34.38" opacity=".2"/>
<ellipse class="selected" cx="788.8" cy="585.3" rx="5.681" ry="5.741" fill="#fff" opacity=".778" stroke-width=".9519"/>
<g transform="matrix(.2976 0 0 .2669 742 548)">
<g id="Layer_2_1_" transform="matrix(.9468 0 0 .9569 10.97 0)" opacity=".778">
<linearGradient id="SVGID_1_" x1="72.91" x2="187.9" y1="-15.41" y2="227.6" gradientUnits="userSpaceOnUse">
<stop stop-color="#A0CBFF" offset="0"/>
<stop stop-color="#A0CBFE" offset=".3941"/>
<stop stop-color="#8EC2FC" offset=".583"/>
<stop stop-color="#83BCFB" offset=".7838"/>
<stop stop-color="#7FBAFB" offset="1"/>
</linearGradient>
<rect width="300" height="295" fill="url(#SVGID_1_)"/>
</g>
<g transform="matrix(.9468 0 0 .9569 10.97 0)" opacity=".778">
<linearGradient id="SVGID_2_" x1="113.7" x2="178.7" y1="26.95" y2="243" gradientUnits="userSpaceOnUse">
<stop stop-color="#090058" offset="0"/>
<stop stop-color="#070033" offset="1"/>
</linearGradient>
<rect x="23.86" y="23.46" width="252.3" height="248.1" fill="url(#SVGID_2_)"/>
</g>
<g transform="matrix(.9468 0 0 .9569 10.97 0)" opacity=".778">
<linearGradient id="SVGID_3_" x1="37.14" x2="152.1" y1="-2.478" y2="240.5" gradientUnits="userSpaceOnUse">
<stop stop-color="#A0CBFF" offset="0"/>
<stop stop-color="#A0CBFE" offset=".3941"/>
<stop stop-color="#8EC2FC" offset=".583"/>
<stop stop-color="#83BCFB" offset=".7838"/>
<stop stop-color="#7FBAFB" offset="1"/>
</linearGradient>
<path d="m72.5 83.14s18.97-.499 34.58-.499c15.78 0 27.03 3.712 34.58 10.24 7.219 6.164 12.09 16.67 12.09 28.63s-3.694 21.75-10.41 28.63c-8.729 8.881-18.9 14.14-36.26 14.86-4.795.201-9.233.249-9.233.249v38.88h-25.35zm25.35 60.57c2.754.268 4.48.139 8.562.09 13.6-.163 21.99-8.432 21.99-20.94 0-11.23-6.919-20.46-19.97-20.94-5.203-.19-10.58 0-10.58 0z" fill="url(#SVGID_3_)"/>
<linearGradient id="SVGID_4_" x1="102.6" x2="218.1" y1="-34.21" y2="209.8" gradientUnits="userSpaceOnUse">
<stop stop-color="#A0CBFF" offset="0"/>
<stop stop-color="#A0CBFE" offset=".3941"/>
<stop stop-color="#8EC2FC" offset=".583"/>
<stop stop-color="#83BCFB" offset=".7838"/>
<stop stop-color="#7FBAFB" offset="1"/>
</linearGradient>
<path d="m163.4 177.1c5.109 3.135 17.16 7.83 25.38 7.83 8.396 0 11.86-2.959 11.86-7.572 0-4.619-2.738-9.471-13.14-12.98-18.44-6.279-25.56-13.8-25.38-24.32 0-16.99 14.24-29.73 36.33-29.73 10.41 0 18.72 3.402 24.19 6.17v20.39c-4.019-2.218-15.61-7.17-23.28-7.17-6.758 0-10.59 2.769-10.59 7.382 0 4.248 3.471 6.464 14.42 10.34 16.98 5.908 24.1 14.58 24.28 27.88 0 16.8-12.95 30.17-38.7 29.36-8.835-.278-18.62-3.77-25.38-7.459v-20.13z" fill="url(#SVGID_4_)"/>
</g>
</g>
<ellipse cx="719.7" cy="375.6" rx="6.134" ry="5.465" fill="#fff" style="paint-order:fill markers stroke"/>
<ellipse cx="753.4" cy="374.1" rx="6.134" ry="5.465" fill="#fff" style="paint-order:fill markers stroke"/>
</g>
<path d="m28.28 24.94 7.799-.2462c-2.799 2.377-4.935 2.705-7.799.2462z" fill="#fff"/>
</svg>
