<svg version="1.1" viewBox="0 0 12.21 11.79" xmlns="http://www.w3.org/2000/svg" xmlns:xlink="http://www.w3.org/1999/xlink">
<g transform="translate(-26.38 -117.3)">
<rect x="26.38" y="117.3" width="12.21" height="11.79" rx=".6615" ry=".6615" fill="#fff" style="paint-order:fill markers stroke"/>
<g transform="matrix(.4395 0 0 .4371 2.106 121.5)">
<g transform="matrix(.602 0 0 .6054 66.51 67.89)">
<g transform="matrix(-.8583 -.9461 1.057 -.874 -89.44 -58.19)">
<g>
<rect transform="matrix(-.6786 .7345 -.7763 -.6304 0 0)" x="55.38" y="-51.65" width="22.53" height="29.7" rx="1.375" ry="1.257" fill="#e9e8e8" stroke="#888684" stroke-linecap="round" stroke-linejoin="round" stroke-width=".1773" style="paint-order:normal"/>
<rect transform="matrix(-.6786 .7345 -.7763 -.6304 0 0)" x="56.95" y="-50.03" width="19.38" height="24.06" rx=".8642" ry=".8643" fill="#c6e5fd" stroke="#888684" stroke-linecap="round" stroke-linejoin="round" stroke-width=".1687" style="paint-order:normal"/>
<path d="m-23.23 71.01s.2455 1.752-.3684 2.201c-.4073.3674-.9168.626-1.485.8226-.396.2768-.227.7924-.1995 1.262.2569.8483.2244 1.455-.05377 2.15l-4.082-3.324-.02371-1.383c2.526-.9688 4.468-4.622 6.212-1.728z" fill="#131f2b"/>
<path d="m-10.04 65.17c-.6646 2.242-3.343 2.663-5.265 1.971-1.308.07581-1.684 1.29-2.64 2.957-1.37 1.523-3.466 1.572-5.583 1.534-2.103-.2744-1.743.9156-2.915 2.059-1.181.7507-2.07-.3473-2.833.5491l-1.596-1.296c-.3804-.3012-.3837-.7493-.1649-1.024l12.01-13.03c.3831-.3094.8072-.3572 1.17-.07241z" fill="#092d47"/>
</g>
<path d="m-21.5 71.32-.3539-.9312.4271 7.21s.9578-.2598 1.864-.1594z" color="#000000" fill="#888a85" stroke="#888684" stroke-linecap="round" stroke-linejoin="round" stroke-width="1.596"/>
<path d="m-19.18 78.53-2.098.2004c1.138 7.307 4.289 14.58 4.274 14.78-.2582-1.653-1.112-11.11-2.176-14.98z" color="#000000" fill="#946c48" stroke="#946c48" stroke-linecap="round" stroke-linejoin="round" stroke-width="1.597" style="paint-order:normal"/>
<path d="m-24.48 67.73c1.406-1.53 2.83-1.251 3.385-1.367-1.045-2.065-.6098-3.404-.6098-3.404-1.821 2.1-3.025 4.267-2.775 4.771z" color="#000000" fill="#4f6270" stroke-width=".3376"/>
</g>
</g>
</g>
<path d="m31.02 125.7.3155-.6336c.212-.401.7176-.3841.9821-.105.4136.4506.5027.994-.1468 1.27-.3982.0518-.7492-.0715-1.151-.5313z" fill="#c88649"/>
</g>
</svg>
