<svg version="1.1" viewBox="0 0 12.21 11.79" xmlns="http://www.w3.org/2000/svg">
<g transform="translate(-26.38 -117.3)">
<rect x="26.38" y="117.3" width="12.21" height="11.79" rx=".6615" ry=".6615" fill="#fff" style="paint-order:fill markers stroke"/>
<rect x="27.13" y="118.2" width="10.65" height="9.785" rx="1.721" ry="2.065" fill="#fff" style="paint-order:fill markers stroke"/>
<path d="m28.75 120.1s.9329-.017 1.714-.017c.7803 0 1.34.1766 1.714.5127.3562.3005.5937.8308.5937 1.431 0 .601-.1697 1.096-.5089 1.45-.4894.5325-1.171.7897-2.256.7594v1.963h-1.256zm1.256 3.058c1.075.1598 1.494-.4382 1.509-1.061-.06323-.8875-.4658-1.129-1.51-1.043z" fill="#004276" stroke-width="1.103"/>
<path d="m33.22 124.8c.2544.1595.8482.389 1.256.389.407 0 .5767-.1417.5767-.3713 0-.2474-.1358-.4772-.6445-.654-.916-.3182-1.273-.7071-1.256-1.237 0-.8486.6954-1.485 1.798-1.485.5089 0 .9329.1593 1.205.3005v1.025c-.2036-.1063-.7803-.3536-1.153-.3536-.3393 0-.5259.1417-.5259.3713 0 .2121.1697.3182.7125.5127.8482.3005 1.187.7424 1.205 1.414 0 .8485-.6445 1.52-1.917 1.467-.441 0-.9329-.1766-1.256-.3713z" fill="#004276" stroke-width="1.103"/>
</g>
</svg>
